<?xml version="1.0" encoding="UTF-8" standalone="no"?>
<!-- Created with Inkscape (http://www.inkscape.org/) -->

<svg
   xmlns:dc="http://purl.org/dc/elements/1.1/"
   xmlns:cc="http://creativecommons.org/ns#"
   xmlns:rdf="http://www.w3.org/1999/02/22-rdf-syntax-ns#"
   xmlns:svg="http://www.w3.org/2000/svg"
   xmlns="http://www.w3.org/2000/svg"
   xmlns:sodipodi="http://sodipodi.sourceforge.net/DTD/sodipodi-0.dtd"
   xmlns:inkscape="http://www.inkscape.org/namespaces/inkscape"
   width="512"
   height="512"
   viewBox="0 0 135.46666 135.46667"
   version="1.1"
   id="svg872"
   inkscape:version="0.92.4 5da689c313, 2019-01-14"
   sodipodi:docname="hermes-wireshare-squircle.svg">
  <defs
     id="defs866" />
  <sodipodi:namedview
     id="base"
     pagecolor="#ffffff"
     bordercolor="#666666"
     borderopacity="1.0"
     inkscape:pageopacity="0.0"
     inkscape:pageshadow="2"
     inkscape:zoom="0.76152343"
     inkscape:cx="363.77526"
     inkscape:cy="270.87105"
     inkscape:document-units="px"
     inkscape:current-layer="layer1"
     showgrid="false"
     units="px"
     inkscape:window-width="1366"
     inkscape:window-height="728"
     inkscape:window-x="0"
     inkscape:window-y="0"
     inkscape:window-maximized="1" />
  <metadata
     id="metadata869">
    <rdf:RDF>
      <cc:Work
         rdf:about="">
        <dc:format>image/svg+xml</dc:format>
        <dc:type
           rdf:resource="http://purl.org/dc/dcmitype/StillImage" />
        <dc:title></dc:title>
      </cc:Work>
    </rdf:RDF>
  </metadata>
  <g
     inkscape:label="Layer 1"
     inkscape:groupmode="layer"
     id="layer1"
     transform="translate(0,-161.53332)">
    <path
       id="path931"
       d="m 67.733369,296.99998 c 29.680323,0 46.180061,0 56.956691,-10.77662 10.7766,-10.77664 10.7766,-27.27633 10.7766,-56.95672 0,-29.68037 0,-46.18009 -10.7766,-56.95674 -10.77663,-10.77658 -27.276368,-10.77658 -56.956691,-10.77658 -29.680388,0 -46.180121,0 -56.956759,10.77658 C 0,183.08655 0,199.58627 0,229.26664 c 0,29.68039 0,46.18008 10.77661,56.95672 10.776638,10.77662 27.276371,10.77662 56.956759,10.77662 z"
       inkscape:connector-curvature="0"
       style="fill:#81d8d0;fill-opacity:1;stroke:none;stroke-width:0.9501484" />
    <g
       id="g1427"
       transform="matrix(1.2243241,0,0,1.2243241,-19.361056,-203.24153)">
      <g
         id="g1492"
         transform="matrix(1.1690254,0,0,1.1690254,149.39927,65.633541)">
        <path
           inkscape:connector-curvature="0"
           id="rect4138-3"
           d="m -67.011908,205.28503 c -3.435146,0.0351 -7.157269,0.58519 -7.966773,1.273 -0.894307,0.7594 -2.198356,2.12046 -3.589378,3.74555 -0.226401,0.26465 -1.532497,2.00819 -1.809461,2.41557 -0.498708,0.7337 -1.023548,1.56685 -1.023548,1.62501 0,0.0332 0.268417,-0.13029 0.596823,-0.36341 0.655267,-0.46555 2.089197,-1.37725 2.165698,-1.37725 0.02639,0 0.131007,-0.0623 0.232568,-0.13845 0.974136,-0.7309 4.693777,-2.39071 7.075341,-3.15759 5.528611,-1.77995 12.205955,-2.15235 17.511709,-0.97669 0.55215,0.1224 0.659468,0.0931 0.279839,-0.0772 -2.90068,-1.3011 -5.741656,-2.19072 -8.143627,-2.55022 -1.341125,-0.20065 -2.094468,-0.28901 -3.036448,-0.35581 -0.722871,-0.0514 -1.500015,-0.0706 -2.292743,-0.0625 z m -13.818082,3.29645 c -0.06564,0.003 -1.808539,0.94481 -2.242941,1.2118 -2.103053,1.29269 -3.65196,2.46525 -5.594687,4.23516 -2.193083,1.99837 -4.709074,5.21444 -6.306319,8.0626 -0.232836,0.41509 -0.451621,0.80298 -0.486662,0.86231 -0.190034,0.32259 -1.091296,2.24872 -1.064908,2.27628 0.01709,0.018 0.134049,-0.06 0.260004,-0.17305 0.503365,-0.452 2.207528,-1.78864 2.639272,-2.06988 0.06275,-0.0409 0.375229,-0.25269 0.694325,-0.47062 0.318871,-0.21818 0.829027,-0.54929 1.13371,-0.73569 l 0.55419,-0.33893 0.03757,-0.91508 c 0.06298,-1.52113 0.5252,-2.65495 1.505988,-3.69489 0.742853,-0.78767 1.09174,-1.04123 1.851671,-1.3456 0.225076,-0.0902 0.474963,-0.19095 0.555458,-0.22412 0.284504,-0.11797 1.255666,-0.22989 1.758812,-0.20302 l 0.509877,0.027 0.152792,-0.2887 c 0.941984,-1.78159 2.127828,-3.62223 3.397333,-5.27348 0.28428,-0.36978 0.558887,-0.73373 0.610329,-0.80871 0.05145,-0.0747 0.06678,-0.13501 0.03419,-0.13338 z m 20.28436,1.9344 c -6.716422,-0.0278 -13.482862,2.10701 -18.979287,6.03112 -0.698727,0.49895 -0.813882,0.60886 -0.579941,0.5542 3.818053,-0.89231 9.978289,-0.89416 13.91896,-0.005 0.243923,0.0551 0.750498,0.16929 1.125692,0.25409 0.862151,0.19434 1.798924,0.47366 1.9078,0.56896 0.04613,0.0402 0.102925,0.0531 0.126204,0.0283 0.06608,-0.0696 1.559048,0.43539 3.117488,1.05394 3.085175,1.22471 6.771963,3.43204 9.313634,5.57569 1.603458,1.35225 1.421983,1.18664 2.711449,2.47255 1.279483,1.27633 2.289565,2.4309 3.360607,3.84178 0.112649,0.14833 0.236013,0.30689 0.273926,0.35244 0.03792,0.0453 0.282448,0.38439 0.543221,0.75299 0.384287,0.5438 0.499772,0.66311 0.612858,0.63228 0.07651,-0.0208 0.342361,-0.0907 0.590496,-0.15491 l 0.451626,-0.11649 0.04558,-1.19829 c 0.04613,-1.21116 -0.03332,-3.4709 -0.165029,-4.69607 -0.06608,-0.61411 -0.102302,-0.89335 -0.273933,-2.10872 -0.309561,-2.18897 -1.225797,-5.65244 -2.006569,-7.58353 -0.0958,-0.23686 -0.254826,-0.63248 -0.353283,-0.87962 -0.680541,-1.70801 -0.628995,-1.65292 -2.209173,-2.37378 -3.670806,-1.67508 -7.436309,-2.63621 -11.451048,-2.92376 -0.692273,-0.0496 -1.386475,-0.0756 -2.081279,-0.0785 z m -25.212162,7.40458 c -1.490138,-0.0274 -2.817439,1.29919 -2.724113,3.04489 0.120852,2.26092 2.560382,3.49994 4.277373,2.17245 1.740495,-1.34594 1.46286,-4.04541 -0.511139,-4.97043 -0.34572,-0.16201 -0.69824,-0.2406 -1.042121,-0.24691 z m 44.958786,1.04676 c -0.0036,8.6e-4 -0.0055,0.005 -0.0055,0.0114 0,0.0378 0.09487,0.42196 0.210618,0.85387 0.940877,3.50922 1.435104,7.81359 1.316468,11.46414 l -0.04559,1.40722 0.592181,0.33724 c 3.481659,1.98318 3.830935,7.1437 0.655068,9.68212 l -0.230455,0.18403 0.317405,1.14553 c 0.786979,2.83952 1.414816,6.46719 1.414816,8.17403 0,0.17309 0.0215,0.33749 0.04812,0.36552 0.08448,0.0892 0.857101,-2.22041 1.270885,-3.80042 0.152559,-0.58164 0.239942,-0.98058 0.559255,-2.55148 0.180064,-0.88484 0.410331,-2.76827 0.509454,-4.16468 0.529312,-7.45502 -1.44541,-15.1469 -5.545299,-21.60168 -0.560673,-0.88298 -1.013066,-1.5198 -1.06744,-1.50684 z m -33.115186,0.34526 c -0.482607,-0.002 -0.890437,0.003 -1.141727,0.0177 -1.011392,0.0572 -3.601849,0.39615 -4.331396,0.56643 -0.225741,0.0528 -0.521475,0.11584 -0.657183,0.14013 l -0.246073,0.0443 -0.03841,0.84332 c -0.140146,3.11702 -2.254209,5.43452 -5.110984,5.6027 -0.767467,0.0451 -0.688384,-0.0538 -0.868221,1.08264 -1.095655,6.92664 -0.344348,13.76466 2.215504,20.16409 0.481417,1.20369 1.677014,3.66046 2.116737,4.34955 0.109765,0.17216 0.247069,0.40167 0.305167,0.5103 0.655708,1.22518 2.344767,3.61361 3.509605,4.96283 0.468998,0.5431 2.033836,2.19283 2.491965,2.62661 0.583863,0.55338 1.232431,1.13664 1.390758,1.25063 0.07916,0.057 0.159259,0.12268 0.178121,0.14604 0.07783,0.0972 0.665737,0.57656 0.706985,0.57656 0.02461,0 0.264531,-0.19442 0.533507,-0.43221 2.59999,-2.2997 6.572714,-1.52818 8.240702,1.60053 0.295814,0.55477 0.214863,0.55147 1.385695,0.0528 2.202168,-0.93787 5.585898,-2.85994 6.668032,-3.78775 0.0561,-0.0481 0.306812,-0.2424 0.556723,-0.43137 0.583641,-0.44126 1.466069,-1.15204 1.728845,-1.39287 2.376686,-2.17589 4.110891,-4.11422 5.652925,-6.31814 0.29049,-0.41509 0.57308,-0.81169 0.627634,-0.8813 0.05454,-0.0696 0.09877,-0.14265 0.09877,-0.16251 0,-0.0196 0.118376,-0.22143 0.262957,-0.44825 0.742627,-1.16655 1.073693,-1.75416 1.831407,-3.25171 0.459682,-0.9082 1.522016,-3.43989 1.522016,-3.62652 0,-0.0677 -0.113985,-0.22536 -0.253241,-0.35034 -1.589489,-1.42816 -2.273256,-2.84103 -2.270377,-4.69269 0.0015,-0.81383 0.377761,-2.47087 0.561371,-2.47087 0.02861,0 0.05192,-0.0447 0.05192,-0.0996 0,-0.10675 0.539983,-0.99838 0.6289,-1.03832 0.143695,-0.0645 -0.0053,-0.32668 -0.799423,-1.40679 -0.353021,-0.48003 -1.424533,-1.80262 -1.481084,-1.82762 -0.02971,-0.0133 -0.05444,-0.0518 -0.05444,-0.0861 0,-0.082 -2.156551,-2.35355 -2.761251,-2.90856 -0.258339,-0.2371 -0.518003,-0.4825 -0.576991,-0.54533 -0.05876,-0.0628 -0.276209,-0.24839 -0.482435,-0.41237 -0.608034,-0.4826 -0.627199,-0.49812 -1.125687,-0.91508 -0.262774,-0.21957 -0.692401,-0.54804 -0.95517,-0.72977 -0.262774,-0.1815 -0.771921,-0.53546 -1.131596,-0.78634 -0.359678,-0.25111 -0.674935,-0.45627 -0.700658,-0.45627 -0.02573,0 -0.176783,-0.0872 -0.335551,-0.19373 -1.366851,-0.91731 -4.326262,-2.33452 -6.394946,-3.06262 -2.423037,-0.85261 -4.381948,-1.29714 -7.369107,-1.67229 -0.609029,-0.0766 -2.732463,-0.14466 -4.180287,-0.14984 z m -17.285492,5.46679 c -0.04999,-0.008 -0.276238,0.15433 -0.89228,0.5926 -2.225903,1.58327 -5.067628,4.19265 -6.350215,5.83105 -0.540397,0.69026 -1.176592,5.23325 -1.175073,8.38929 0.0014,2.44849 0.22681,4.90364 0.643251,7.00782 0.09003,0.45457 0.179506,0.92369 0.1988,1.04211 0.126618,0.7823 0.985998,3.60398 1.510207,4.95904 0.693405,1.7921 0.743481,1.84635 0.520849,0.56348 -0.40757,-2.34781 -0.567517,-4.30531 -0.566433,-6.93226 8.64e-4,-1.78019 0.03694,-2.48977 0.220324,-4.34027 0.532193,-5.37421 2.580967,-11.62127 5.226636,-15.93567 0.162984,-0.2656 0.296301,-0.51231 0.296301,-0.54829 0,-0.036 0.04802,-0.10731 0.106785,-0.1587 0.05876,-0.0514 0.151625,-0.18464 0.206398,-0.2963 0.05089,-0.10372 0.08444,-0.16934 0.05445,-0.1739 z m 2.240828,1.8082 c -0.05643,-0.002 -0.249991,0.31734 -0.712471,1.10964 -0.389613,0.6676 -0.649248,1.15774 -1.311834,2.47635 -4.684412,9.32188 -4.813044,21.72946 -0.327532,31.58393 l 0.241854,0.53098 0.688835,0.33935 c 4.561791,2.24644 9.344269,3.37241 14.344012,3.37708 l 1.169583,0.002 0.04348,-0.34147 c 0.02418,-0.18781 0.06004,-0.45681 0.07977,-0.59766 0.03592,-0.25368 0.02795,-0.2632 -0.769455,-0.93407 -2.481569,-2.08821 -4.120203,-3.82046 -6.313067,-6.67283 -6.169237,-8.02442 -9.017348,-20.19381 -7.150901,-30.55376 0.03618,-0.20068 0.05159,-0.31778 0.01775,-0.31909 z m 47.416559,8.60749 c -1.467928,0.0293 -2.832341,1.88173 -2.468747,3.50708 0.188487,0.84163 0.885644,1.7771 1.442676,1.93524 0.141248,0.04 0.273617,0.10077 0.293343,0.13465 0.170082,0.28965 1.437196,0.23177 2.118847,-0.0967 2.319036,-1.11773 1.828176,-5.0466 -0.674907,-5.40095 -0.154117,-0.0217 -0.341844,-0.0485 -0.417016,-0.0599 -0.0983,-0.0148 -0.196328,-0.0214 -0.294196,-0.0194 z m -0.05613,8.67378 -0.227082,0.59302 c -0.335061,0.87386 -0.356842,0.9264 -0.890588,2.13827 -0.796297,1.80705 -1.401966,2.95862 -2.454822,4.66779 -0.281179,0.45667 -0.523704,0.86106 -0.538574,0.8982 -0.138154,0.34127 -2.519742,3.47362 -3.177005,4.1786 -0.07672,0.0822 -0.403558,0.43784 -0.725977,0.79056 -0.988329,1.08035 -2.335724,2.38408 -3.491031,3.37707 -0.151896,0.13058 -1.398489,1.1088 -1.596729,1.25316 -2.863873,2.08339 -5.973382,3.79374 -8.768732,4.8227 -0.426863,0.15721 -0.458561,0.18363 -0.498478,0.42166 -0.02328,0.13969 -0.05756,0.30824 -0.07597,0.3748 -0.08182,0.29456 3.943537,1.40029 6.386083,1.75418 2.2381,0.32423 4.66813,0.44745 6.44011,0.32669 l 1.151861,-0.0785 0.519578,-0.33851 c 0.7586,-0.49427 1.608131,-1.10848 1.634297,-1.18183 0.01264,-0.035 0.05127,-0.0637 0.08653,-0.0637 0.405795,0 4.139275,-3.55285 5.626758,-5.35452 0.656812,-0.79585 1.939883,-2.51302 1.939883,-2.59665 0,-0.0294 0.05737,-0.12023 0.127891,-0.20175 0.538181,-0.62486 0.779121,-1.13368 0.832337,-1.75924 0.333734,-3.92268 -0.156227,-9.09105 -1.19955,-12.6561 -0.08693,-0.29666 -0.207686,-0.72536 -0.26844,-0.95265 l -0.110162,-0.41321 h -0.360886 z m -27.733237,19.43811 c -1.61091,-0.0195 -3.032256,1.52369 -2.740565,3.3184 0.382284,2.35062 3.057274,3.24412 4.640773,1.54989 1.370397,-1.46602 0.839711,-3.96342 -0.995692,-4.68848 -0.301642,-0.11913 -0.606202,-0.1762 -0.904516,-0.17981 z m -17.2399,3.95364 c -0.04061,0.0444 0.493571,0.47034 1.383581,1.09741 8.50535,5.99462 18.706173,7.5053 28.462184,4.21448 0.948409,-0.31978 1.000854,-0.28802 -0.863161,-0.52465 -2.309719,-0.29315 -5.281855,-1.01796 -7.118811,-1.73602 -0.678107,-0.26512 -0.59525,-0.28151 -1.126111,0.22328 -2.412612,2.29526 -6.905688,1.53289 -8.225084,-1.3954 l -0.107212,-0.2389 -2.167384,-0.0401 c -3.517802,-0.0659 -6.288715,-0.46327 -9.297605,-1.33293 -0.394044,-0.11376 -0.793416,-0.23193 -0.887215,-0.26253 -0.02991,-0.01 -0.04738,-0.011 -0.05318,-0.005 z"
           style="opacity:1;fill:#fdf6e3;fill-opacity:1;fill-rule:evenodd;stroke:none;stroke-width:0.45518357;stroke-linejoin:round;stroke-miterlimit:4;stroke-dasharray:none;stroke-opacity:1" />
        <g
           id="g10"
           transform="matrix(0.22174752,0,0,0.23359004,-112.9465,193.91834)">
          <g
             id="g4142"
             transform="translate(98.275858,249.2851)">
            <path
               d="m 201.6,38.68 c -0.33,0.12 -1.23,0.494 -2,0.832 -0.867,0.38 -10.087,9.253 -24.2,23.287 -23.237,23.107 -23.729,23.565 -27.503,25.55 -6.449,3.392 -8.958,3.651 -35.374,3.65 -26.077,-0.002 -26.302,-0.043 -25.156,-4.611 0.656,-2.613 0.37,-2.585 26.073,-2.587 24.866,-0.001 24.484,0.028 27.767,-2.097 8.574,-5.549 7.469,-18.63 -1.948,-23.045 L 137,58.6 100.8,58.476 C 48.761,58.299 55.856,56.461 22.324,78.798 0.394,93.407 0.8,93.1 0.8,95.029 c 0,1.182 25.683,46.996 27.508,49.071 1.657,1.884 2.788,1.291 15.065,-7.904 15.875,-11.889 14.849,-11.501 33.227,-12.59 3.96,-0.234 9.72,-0.596 12.8,-0.804 5.992,-0.405 14.392,-0.956 24.4,-1.602 32.867,-2.12 33.082,-2.143 37.894,-4.035 7.784,-3.059 12.225,-6.666 20.149,-16.365 0.629,-0.77 1.246,-1.49 1.37,-1.6 0.125,-0.11 3.539,-4.07 7.587,-8.8 4.048,-4.73 7.459,-8.69 7.58,-8.8 0.121,-0.11 1.207,-1.37 2.414,-2.8 1.207,-1.43 2.377,-2.793 2.6,-3.029 3.409,-3.604 18.639,-21.815 19.295,-23.07 3.637,-6.961 -3.98,-16.592 -11.089,-14.021 m 4.619,7.578 c 1.563,1.687 1.119,3.492 -1.528,6.207 -0.286,0.294 -4.914,5.665 -10.284,11.935 -5.369,6.27 -9.864,11.49 -9.987,11.6 -0.124,0.11 -1.213,1.37 -2.42,2.8 -1.207,1.43 -2.286,2.69 -2.398,2.8 -0.298,0.295 -2.76,3.142 -4.681,5.414 -19.453,23.012 -22.414,25.13 -36.321,25.976 -3.803,0.231 -7.304,0.453 -22,1.394 -3.52,0.225 -9.1,0.595 -12.4,0.823 -3.3,0.227 -8.79,0.588 -12.2,0.802 -7.625,0.478 -16.341,1.048 -24,1.568 -10.347,0.703 -14.057,2.183 -23.273,9.283 -7.712,5.941 -13.053,9.747 -13.312,9.488 C 30.86,135.793 9.034,97.247 8.909,96.6 8.78,95.935 11.941,93.677 27.662,83.205 47.512,69.982 51.088,67.891 56.489,66.347 L 59.8,65.4 h 38.27 c 38.029,0 38.278,0.005 39.376,0.825 4.199,3.134 3.681,9.658 -0.919,11.58 -1.206,0.504 -5.005,0.595 -24.78,0.595 -23.159,0 -23.371,0.007 -25.209,0.871 -7.942,3.733 -7.942,14.525 0,18.258 1.841,0.865 2.013,0.871 26.558,0.871 38.556,-0.001 34.025,2.067 66.411,-30.31 25.591,-25.585 24.249,-24.489 26.712,-21.832"
               id="path13"
               inkscape:connector-curvature="0"
               style="fill:#fdf6e3;fill-opacity:1;fill-rule:evenodd;stroke:none" />
            <path
               d="m 209.6,40.125 c 0,0.069 0.585,0.654 1.3,1.3 l 1.3,1.175 -1.175,-1.3 C 209.93,40.088 209.6,39.816 209.6,40.125 m -7.584,5.749 c -0.529,0.37 -10.658,10.367 -22.509,22.216 -26.595,26.588 -27.617,27.37 -38.802,29.703 -5.326,1.111 -51.723,0.885 -54.167,-0.264 -7.942,-3.733 -7.942,-14.525 0,-18.258 1.838,-0.864 2.05,-0.871 25.209,-0.871 19.775,0 23.574,-0.091 24.78,-0.595 4.6,-1.922 5.118,-8.446 0.919,-11.58 C 136.348,65.405 136.099,65.4 98.07,65.4 H 59.8 l -3.311,0.947 C 51.088,67.891 47.512,69.982 27.662,83.205 11.941,93.677 8.78,95.935 8.909,96.6 c 0.125,0.647 21.951,39.193 22.506,39.748 0.259,0.259 5.6,-3.547 13.312,-9.488 9.216,-7.1 12.926,-8.58 23.273,-9.283 7.659,-0.52 16.375,-1.09 24,-1.568 3.41,-0.214 8.9,-0.575 12.2,-0.802 3.3,-0.228 8.88,-0.598 12.4,-0.823 14.696,-0.941 18.197,-1.163 22,-1.394 13.907,-0.846 16.868,-2.964 36.321,-25.976 1.921,-2.272 4.383,-5.119 4.681,-5.414 0.112,-0.11 1.191,-1.37 2.398,-2.8 1.207,-1.43 2.296,-2.69 2.42,-2.8 0.123,-0.11 4.618,-5.33 9.987,-11.6 5.37,-6.27 9.998,-11.641 10.284,-11.935 4.052,-4.157 1.794,-9.721 -2.675,-6.591 m 11.693,2.526 c 0,0.99 0.078,1.395 0.173,0.9 0.096,-0.495 0.096,-1.305 0,-1.8 -0.095,-0.495 -0.173,-0.09 -0.173,0.9 M 101.3,85.1 c 6.325,0.062 16.675,0.062 23,0 6.325,-0.062 1.15,-0.113 -11.5,-0.113 -12.65,0 -17.825,0.051 -11.5,0.113 m 0.229,6.8 c 6.45,0.062 16.89,0.062 23.2,0 6.309,-0.062 1.031,-0.113 -11.729,-0.113 -12.76,0 -17.922,0.051 -11.471,0.113 m 39.771,27.576 c 0.385,0.1 1.015,0.1 1.4,0 0.385,-0.101 0.07,-0.183 -0.7,-0.183 -0.77,0 -1.085,0.082 -0.7,0.183 m -4.6,0.406 c 0.495,0.096 1.305,0.096 1.8,0 0.495,-0.095 0.09,-0.173 -0.9,-0.173 -0.99,0 -1.395,0.078 -0.9,0.173 m -7.6,0.4 c 0.495,0.096 1.305,0.096 1.8,0 0.495,-0.095 0.09,-0.173 -0.9,-0.173 -0.99,0 -1.395,0.078 -0.9,0.173 m -4.395,0.401 c 0.497,0.096 1.217,0.092 1.6,-0.008 0.382,-0.1 -0.025,-0.179 -0.905,-0.174 -0.88,0.004 -1.193,0.086 -0.695,0.182 m -8,0.4 c 0.497,0.096 1.217,0.092 1.6,-0.008 0.382,-0.1 -0.025,-0.179 -0.905,-0.174 -0.88,0.004 -1.193,0.086 -0.695,0.182 m -4.4,0.4 c 0.497,0.096 1.217,0.092 1.6,-0.008 0.382,-0.1 -0.025,-0.179 -0.905,-0.174 -0.88,0.004 -1.193,0.086 -0.695,0.182 m -8.005,0.399 c 0.495,0.096 1.305,0.096 1.8,0 0.495,-0.095 0.09,-0.173 -0.9,-0.173 -0.99,0 -1.395,0.078 -0.9,0.173 m -4.4,0.4 c 0.495,0.096 1.305,0.096 1.8,0 0.495,-0.095 0.09,-0.173 -0.9,-0.173 -0.99,0 -1.395,0.078 -0.9,0.173 m -7.595,0.401 c 0.497,0.096 1.217,0.092 1.6,-0.008 0.382,-0.1 -0.025,-0.179 -0.905,-0.174 -0.88,0.004 -1.193,0.086 -0.695,0.182 m -4.805,0.399 c 0.495,0.096 1.305,0.096 1.8,0 0.495,-0.095 0.09,-0.173 -0.9,-0.173 -0.99,0 -1.395,0.078 -0.9,0.173 m -7.4,0.394 c 0.385,0.1 1.015,0.1 1.4,0 0.385,-0.101 0.07,-0.183 -0.7,-0.183 -0.77,0 -1.085,0.082 -0.7,0.183 m -4.595,0.407 c 0.497,0.096 1.217,0.092 1.6,-0.008 0.382,-0.1 -0.025,-0.179 -0.905,-0.174 -0.88,0.004 -1.193,0.086 -0.695,0.182 m -8.005,0.399 c 0.495,0.096 1.305,0.096 1.8,0 0.495,-0.095 0.09,-0.173 -0.9,-0.173 -0.99,0 -1.395,0.078 -0.9,0.173"
               id="path2-6"
               inkscape:connector-curvature="0"
               style="fill:#81d8d0;fill-opacity:1;fill-rule:evenodd;stroke:none" />
          </g>
        </g>
      </g>
    </g>
  </g>
</svg>
