<?xml version="1.0" encoding="UTF-8" standalone="no"?>
<!-- Created with Inkscape (http://www.inkscape.org/) -->

<svg
   xmlns:dc="http://purl.org/dc/elements/1.1/"
   xmlns:cc="http://creativecommons.org/ns#"
   xmlns:rdf="http://www.w3.org/1999/02/22-rdf-syntax-ns#"
   xmlns:svg="http://www.w3.org/2000/svg"
   xmlns="http://www.w3.org/2000/svg"
   xmlns:xlink="http://www.w3.org/1999/xlink"
   xmlns:sodipodi="http://sodipodi.sourceforge.net/DTD/sodipodi-0.dtd"
   xmlns:inkscape="http://www.inkscape.org/namespaces/inkscape"
   width="512"
   height="512"
   viewBox="0 0 135.46666 135.46667"
   version="1.1"
   id="svg872"
   inkscape:version="0.92.4 5da689c313, 2019-01-14"
   sodipodi:docname="hermes-wireshare-dloadcplt.svg">
  <defs
     id="defs866" />
  <sodipodi:namedview
     id="base"
     pagecolor="#ffffff"
     bordercolor="#666666"
     borderopacity="1.0"
     inkscape:pageopacity="0.0"
     inkscape:pageshadow="2"
     inkscape:zoom="0.54058181"
     inkscape:cx="252.59121"
     inkscape:cy="270.87105"
     inkscape:document-units="px"
     inkscape:current-layer="layer1"
     showgrid="false"
     units="px"
     inkscape:window-width="1366"
     inkscape:window-height="685"
     inkscape:window-x="0"
     inkscape:window-y="0"
     inkscape:window-maximized="1" />
  <metadata
     id="metadata869">
    <rdf:RDF>
      <cc:Work
         rdf:about="">
        <dc:format>image/svg+xml</dc:format>
        <dc:type
           rdf:resource="http://purl.org/dc/dcmitype/StillImage" />
        <dc:title></dc:title>
      </cc:Work>
    </rdf:RDF>
  </metadata>
  <g
     inkscape:label="Layer 1"
     inkscape:groupmode="layer"
     id="layer1"
     transform="translate(0,-161.53332)">
    <path
       id="path931"
       d="m 67.733369,296.99998 c 29.680323,0 46.180061,0 56.956691,-10.77662 10.7766,-10.77664 10.7766,-27.27633 10.7766,-56.95672 0,-29.68037 0,-46.18009 -10.7766,-56.95674 -10.77663,-10.77658 -27.276368,-10.77658 -56.956691,-10.77658 -29.680388,0 -46.180121,0 -56.956759,10.77658 C 0,183.08655 0,199.58627 0,229.26664 c 0,29.68039 0,46.18008 10.77661,56.95672 10.776638,10.77662 27.276371,10.77662 56.956759,10.77662 z"
       inkscape:connector-curvature="0"
       style="fill:#a3b8cc;fill-opacity:1;stroke:none;stroke-width:0.9501484" />
    <g
       style="fill:none;fill-rule:evenodd;stroke:none;stroke-width:1"
       id="g3512"
       transform="matrix(3.7221483,0,0,3.7221483,24.60625,178.46665)">
      <path
         style="fill:#fdf6e3;fill-opacity:1"
         inkscape:connector-curvature="0"
         id="Fill-1"
         d="M 9.6110747,14.601434 0.59253779,4.0771847 C -0.31011311,3.0236316 -0.16526178,1.4568184 0.91646026,0.57740445 1.9975806,-0.30200947 3.6064382,-0.16120361 4.5090891,0.89278906 L 11.569275,9.1316902 18.629461,0.89278906 v 2.9304e-4 c 0.902651,-1.05355311 2.511057,-1.19509157 3.592629,-0.31567765 1.081271,0.87941395 1.226423,2.44622715 0.323622,3.49978025 L 13.527776,14.601434 c -0.485094,0.565348 -1.201905,0.892014 -1.95805,0.892014 -0.756821,2.93e-4 -1.473933,-0.326373 -1.9586513,-0.892014" />
      <g
         id="g3515"
         transform="translate(3.168124,16.860313)">
        <mask
           id="mask3517"
           fill="white">
          <use
             height="100%"
             width="100%"
             y="0"
             x="0"
             id="use3519"
             xlink:href="#path-1" />
        </mask>
        <g
           id="g3521" />
        <path
           style="fill:#fdf6e3;fill-opacity:1"
           inkscape:connector-curvature="0"
           id="path3523"
           mask="url(#mask-2)"
           d="M 0,2.3605128 H 3.008335e-4 C 3.008335e-4,1.0567033 1.084956,0 2.423289,0 3.761622,0 4.8466532,1.0567033 4.8466532,2.3605128 4.8475557,3.2941392 5.2280349,4.1177289 5.8553479,4.7323077 6.4858197,5.3431502 7.3316131,5.7136264 8.290219,5.7145787 9.2482233,5.7136264 10.093866,5.3431502 10.724789,4.7323077 11.351726,4.1177289 11.732356,3.2941392 11.733634,2.3605128 11.733634,1.0567033 12.81859,0 14.156773,0 15.494956,0 16.580062,1.0567033 16.580062,2.3605128 16.578407,6.8213919 12.869281,10.434139 8.290219,10.435751 3.7107812,10.434139 0.00157938,6.8213919 0,2.3605128" />
      </g>
    </g>
  </g>
</svg>
